<svg version="1.1" xmlns="http://www.w3.org/2000/svg" viewBox="0 0 1152.7999877929688 623.3457226193148" width="1152.7999877929688" height="623.3457226193148" filter="invert(93%) hue-rotate(180deg)">
  <!-- svg-source:excalidraw -->
  
  <defs>
    <style class="style-fonts">
      @font-face {
        font-family: "Virgil";
        src: url("https://excalidraw.com/Virgil.woff2");
      }
      @font-face {
        font-family: "Cascadia";
        src: url("https://excalidraw.com/Cascadia.woff2");
      }
      @font-face {
        font-family: "Assistant";
        src: url("https://excalidraw.com/Assistant-Regular.woff2");
      }
    </style>
    
  </defs>
  <g stroke-linecap="round" transform="translate(431.3449679880955 105.41512361931478) rotate(0 103.81516055539464 90.19089449986646)"><path d="M32 0 C86.98 -1.98, 141.85 0.79, 175.63 0 M32 0 C65.75 -0.56, 97.64 -0.83, 175.63 0 M175.63 0 C195.46 1.34, 209.14 10.61, 207.63 32 M175.63 0 C195.15 -1.36, 207.58 10.21, 207.63 32 M207.63 32 C210.21 67.72, 207.39 107.8, 207.63 148.38 M207.63 32 C206.41 58.55, 206.9 86.44, 207.63 148.38 M207.63 148.38 C208.57 167.72, 197.82 181.27, 175.63 180.38 M207.63 148.38 C209.68 169.12, 197.11 181.12, 175.63 180.38 M175.63 180.38 C123.74 181.51, 72.5 183.76, 32 180.38 M175.63 180.38 C141 179.04, 104.45 179.92, 32 180.38 M32 180.38 C12.47 181.72, 0.62 171.67, 0 148.38 M32 180.38 C10.98 179.55, -0.84 168.61, 0 148.38 M0 148.38 C0.83 123.11, 0.47 101.73, 0 32 M0 148.38 C-1.09 101.87, -0.53 56.16, 0 32 M0 32 C1.42 12.61, 12.53 0.41, 32 0 M0 32 C-0.19 10.73, 11.03 -1.08, 32 0" stroke="#1971c2" stroke-width="2" fill="none"></path></g><g transform="translate(509.9601277805507 182.6951827460399) rotate(0 25.200000762939453 12.910835373141339)"><text x="25.200000762939453" y="0" font-family="Cascadia, Segoe UI Emoji" font-size="21.51805895523556px" fill="#1971c2" text-anchor="middle" style="white-space: pre;" direction="ltr" dominant-baseline="text-before-edge">wimc</text></g><g stroke-linecap="round" transform="translate(41.774382662698486 105.40401171031749) rotate(0 131.0655857043651 90.19089456944448)"><path d="M32 0 C106.72 -2.81, 181.65 -1.86, 230.13 0 M32 0 C97.3 0.29, 162.18 -0.05, 230.13 0 M230.13 0 C252.66 -0.18, 262.11 11.37, 262.13 32 M230.13 0 C251.2 0.19, 262.16 12.32, 262.13 32 M262.13 32 C260.11 66.69, 263.14 102.39, 262.13 148.38 M262.13 32 C261.56 78.04, 260.97 121.88, 262.13 148.38 M262.13 148.38 C263.83 170.71, 249.55 178.74, 230.13 180.38 M262.13 148.38 C261.35 170.23, 249.96 182.17, 230.13 180.38 M230.13 180.38 C183.23 178.44, 139.14 176.74, 32 180.38 M230.13 180.38 C190.14 180.92, 149.35 181.92, 32 180.38 M32 180.38 C12.53 180.89, 0.91 170.25, 0 148.38 M32 180.38 C9.25 182.22, -1.23 168.28, 0 148.38 M0 148.38 C-0.96 116.84, 1.22 87.14, 0 32 M0 148.38 C-0.63 119.31, 0.47 89.48, 0 32 M0 32 C-0.48 10.01, 8.84 1.77, 32 0 M0 32 C-0.2 12.55, 9.02 0.39, 32 0" stroke="#1971c2" stroke-width="2" fill="none"></path></g><g stroke-linecap="round" transform="translate(10 357.44220368444337) rotate(0 335.88333149999994 50.82196053613097)"><path d="M25.41 0 C211.59 -1.95, 399.88 -1.83, 646.36 0 M25.41 0 C204.03 1.65, 383.73 1.9, 646.36 0 M646.36 0 C662.13 0.71, 673.47 8.92, 671.77 25.41 M646.36 0 C664.6 2.22, 670.91 7.33, 671.77 25.41 M671.77 25.41 C669.85 41.21, 670.16 58.49, 671.77 76.23 M671.77 25.41 C671.04 41.2, 672.38 56.85, 671.77 76.23 M671.77 76.23 C672.53 91.56, 662.62 102.15, 646.36 101.64 M671.77 76.23 C669.85 91.89, 663.18 99.74, 646.36 101.64 M646.36 101.64 C409.29 102.35, 173.36 101.41, 25.41 101.64 M646.36 101.64 C401.52 99.85, 156.36 99.36, 25.41 101.64 M25.41 101.64 C7.6 101.18, -0.05 92.69, 0 76.23 M25.41 101.64 C6.89 100.58, 1.81 92.77, 0 76.23 M0 76.23 C1.29 59.57, 0.25 44.47, 0 25.41 M0 76.23 C-0.19 57.06, -0.1 38.08, 0 25.41 M0 25.41 C-1.9 8.22, 9.25 -0.51, 25.41 0 M0 25.41 C0.35 9.44, 8.26 -0.62, 25.41 0" stroke="#1971c2" stroke-width="2" fill="none"></path></g><g transform="translate(317.7499982938232 393.9144341868432) rotate(0 28.133333206176758 14.349730033731078)"><text x="28.133333206176758" y="0" font-family="Cascadia, Segoe UI Emoji" font-size="23.916216722885174px" fill="#1971c2" text-anchor="middle" style="white-space: pre;" direction="ltr" dominant-baseline="text-before-edge">wbsl</text></g><g stroke-linecap="round" transform="translate(10 492.56882816874463) rotate(0 86.31761358412575 60.38844722528506)"><path d="M30.19 0 C53.85 0.4, 76.52 -0.26, 142.44 0 M30.19 0 C68.64 -0.26, 105.98 -0.05, 142.44 0 M142.44 0 C162.61 -0.39, 171.57 10.58, 172.64 30.19 M142.44 0 C161.18 1.64, 171.69 10.14, 172.64 30.19 M172.64 30.19 C170.98 46.09, 172.58 62.29, 172.64 90.58 M172.64 30.19 C173.84 42.85, 172.05 54.86, 172.64 90.58 M172.64 90.58 C172.36 110.85, 162.94 119.47, 142.44 120.78 M172.64 90.58 C174.04 109.21, 163.95 121.43, 142.44 120.78 M142.44 120.78 C108.82 119.26, 78.01 120.66, 30.19 120.78 M142.44 120.78 C115.97 120.78, 87.44 119.61, 30.19 120.78 M30.19 120.78 C8.39 121.92, 0.93 110.82, 0 90.58 M30.19 120.78 C9.99 122.73, -0.88 112.36, 0 90.58 M0 90.58 C1.47 73.37, -1.24 55.82, 0 30.19 M0 90.58 C-0.18 76.26, -1.35 60.39, 0 30.19 M0 30.19 C-1.49 10.57, 9.16 0.41, 30.19 0 M0 30.19 C-1.02 10.02, 11.26 -2.1, 30.19 0" stroke="#1971c2" stroke-width="2" fill="none"></path></g><g transform="translate(75.21761320265603 538.6075453602986) rotate(0 21.100000381469727 14.349730033731078)"><text x="21.100000381469727" y="0" font-family="Cascadia, Segoe UI Emoji" font-size="23.916216722885174px" fill="#1971c2" text-anchor="middle" style="white-space: pre;" direction="ltr" dominant-baseline="text-before-edge">wjp</text></g><g stroke-linecap="round" transform="translate(204.0003823684433 491.97092275067246) rotate(0 71.15074475058344 59.790541807212946)"><path d="M29.9 0 C54.1 -1.09, 75.7 -1.32, 112.41 0 M29.9 0 C54.34 -1.08, 80.34 -1.04, 112.41 0 M112.41 0 C133.78 1.51, 143.58 11.03, 142.3 29.9 M112.41 0 C133.11 -0.58, 143.7 9.1, 142.3 29.9 M142.3 29.9 C142.63 46.14, 141.55 64.5, 142.3 89.69 M142.3 29.9 C141.49 45.97, 142.03 63.18, 142.3 89.69 M142.3 89.69 C142.66 109.58, 132.51 119.99, 112.41 119.58 M142.3 89.69 C144.34 108, 132.71 119.95, 112.41 119.58 M112.41 119.58 C88.29 118.71, 66.3 119.47, 29.9 119.58 M112.41 119.58 C87.37 120.37, 62.17 119.63, 29.9 119.58 M29.9 119.58 C8.87 118.79, 0.22 110.24, 0 89.69 M29.9 119.58 C11.01 119.13, -2.18 108.37, 0 89.69 M0 89.69 C-0.9 75.58, 2.06 61.91, 0 29.9 M0 89.69 C0.75 73.37, -0.33 59.13, 0 29.9 M0 29.9 C0.73 10.51, 8.67 -1.17, 29.9 0 M0 29.9 C1.28 11.5, 9.34 1.62, 29.9 0" stroke="#1971c2" stroke-width="2" fill="none"></path></g><g transform="translate(247.01779391284992 537.4117345241543) rotate(0 28.133333206176758 14.349730033731078)"><text x="28.133333206176758" y="0" font-family="Cascadia, Segoe UI Emoji" font-size="23.916216722885174px" fill="#1971c2" text-anchor="middle" style="white-space: pre;" direction="ltr" dominant-baseline="text-before-edge">whdp</text></g><g stroke-linecap="round" transform="translate(10 44.65462944047613) rotate(0 335.88333150000005 139.95138812500002)"><path d="M32 0 C227.05 -0.95, 420.91 0.35, 639.77 0 M32 0 C184.98 -1.64, 338.66 -1.43, 639.77 0 M639.77 0 C660.24 -1.13, 673.02 9.12, 671.77 32 M639.77 0 C662.98 0.66, 670.76 8.87, 671.77 32 M671.77 32 C671.14 95.02, 671.82 156.64, 671.77 247.9 M671.77 32 C672.29 77.34, 672.62 123.46, 671.77 247.9 M671.77 247.9 C670.2 270.12, 660.19 280.81, 639.77 279.9 M671.77 247.9 C674.06 269.92, 660.6 280.45, 639.77 279.9 M639.77 279.9 C437.75 281.65, 236.26 282.9, 32 279.9 M639.77 279.9 C498.83 278.04, 357.58 277.7, 32 279.9 M32 279.9 C12.54 278.45, 1.85 269.08, 0 247.9 M32 279.9 C10 278.61, 1.1 270.56, 0 247.9 M0 247.9 C-2.63 200.94, 0.13 152.21, 0 32 M0 247.9 C0.69 168.72, -0.45 88.36, 0 32 M0 32 C0.87 12.06, 9.24 0.62, 32 0 M0 32 C0.79 8.92, 10.59 -1.07, 32 0" stroke="#1971c2" stroke-width="2" fill="none"></path></g><g stroke-linecap="round" transform="translate(371.7327779336383 492.56882816874463) rotate(0 69.35702849636709 60.38844722528506)"><path d="M30.19 0 C52.77 0.76, 72.1 -0.11, 108.52 0 M30.19 0 C52.06 1.18, 71.26 0.88, 108.52 0 M108.52 0 C130.42 1.31, 138.28 10.02, 138.71 30.19 M108.52 0 C128.02 -0.75, 140.49 10.79, 138.71 30.19 M138.71 30.19 C138.69 51.78, 136.6 68.23, 138.71 90.58 M138.71 30.19 C138.33 47.9, 137.82 64.86, 138.71 90.58 M138.71 90.58 C140.65 112.12, 127.21 120.62, 108.52 120.78 M138.71 90.58 C136.64 110.81, 127.13 122.66, 108.52 120.78 M108.52 120.78 C78.88 121.72, 51.75 121.98, 30.19 120.78 M108.52 120.78 C91.6 121.31, 76.39 121.18, 30.19 120.78 M30.19 120.78 C11 120.32, 1.66 110.6, 0 90.58 M30.19 120.78 C11.67 119.34, 1.52 108.78, 0 90.58 M0 90.58 C-1.56 75.32, -0.08 60.25, 0 30.19 M0 90.58 C0.49 75.96, 0.36 62.3, 0 30.19 M0 30.19 C1.97 9.96, 9.32 0.69, 30.19 0 M0 30.19 C0.58 10.54, 9.89 0.41, 30.19 0" stroke="#1971c2" stroke-width="2" fill="none"></path></g><g transform="translate(419.9898060485357 538.6075453602986) rotate(0 21.100000381469727 14.349730033731078)"><text x="21.100000381469727" y="0" font-family="Cascadia, Segoe UI Emoji" font-size="23.916216722885174px" fill="#1971c2" text-anchor="middle" style="white-space: pre;" direction="ltr" dominant-baseline="text-before-edge">aul</text></g><g stroke-linecap="round" transform="translate(152.84969074206344 137.6157399404762) rotate(0 69.30925888095243 59.97916633928574)"><path d="M29.99 0 C53.03 0.07, 79.61 -2.07, 108.63 0 M29.99 0 C53.68 0.82, 75.87 0.03, 108.63 0 M108.63 0 C127.31 -1.45, 136.71 11.26, 138.62 29.99 M108.63 0 C130.72 -0.91, 136.73 8.27, 138.62 29.99 M138.62 29.99 C138.84 40.7, 138.51 55.56, 138.62 89.97 M138.62 29.99 C137.97 54.38, 137.95 78.41, 138.62 89.97 M138.62 89.97 C139.64 110.62, 130.48 119.9, 108.63 119.96 M138.62 89.97 C137.55 109.42, 127.05 120.1, 108.63 119.96 M108.63 119.96 C79.51 121.11, 49.58 120.94, 29.99 119.96 M108.63 119.96 C83.82 121.61, 56.23 120.64, 29.99 119.96 M29.99 119.96 C11.9 118.34, -1.84 108.01, 0 89.97 M29.99 119.96 C9.04 121.62, 2.29 110.25, 0 89.97 M0 89.97 C1.17 72.66, 2.33 58.03, 0 29.99 M0 89.97 C0.72 72.16, 0.85 52.96, 0 29.99 M0 29.99 C1.1 11.46, 9.69 -0.05, 29.99 0 M0 29.99 C1.86 10.09, 10.76 1.01, 29.99 0" stroke="#1971c2" stroke-width="2" fill="none"></path></g><g transform="translate(196.15894962301581 186.931943375) rotate(0 26 10.662962904761912)"><text x="26" y="0" font-family="Cascadia, Segoe UI Emoji" font-size="17.771604841269845px" fill="#1971c2" text-anchor="middle" style="white-space: pre;" direction="ltr" dominant-baseline="text-before-edge">wimcp</text></g><a href="https://github.com/AdrisGithub/wbdl"><g stroke-linecap="round" transform="translate(535.8777409904005 490.97092275067246) rotate(0 72.94446100479979 59.790541807212946)"><path d="M29.9 0 C54.47 -0.03, 79.77 -1.53, 115.99 0 M29.9 0 C50.58 -0.88, 73.93 -0.3, 115.99 0 M115.99 0 C136.21 0.61, 147.65 11.09, 145.89 29.9 M115.99 0 C134.85 -1.73, 145.71 9.26, 145.89 29.9 M145.89 29.9 C146.64 49.81, 145.45 72.73, 145.89 89.69 M145.89 29.9 C147.4 50.44, 146.95 71.46, 145.89 89.69 M145.89 89.69 C146.55 107.75, 136.85 118.75, 115.99 119.58 M145.89 89.69 C144.69 108.24, 135.62 120.07, 115.99 119.58 M115.99 119.58 C95.31 120.06, 77.7 121.38, 29.9 119.58 M115.99 119.58 C93.14 121.3, 70.72 119.46, 29.9 119.58 M29.9 119.58 C11.18 118.42, 0.04 110.21, 0 89.69 M29.9 119.58 C11.71 120.08, 1.84 108.28, 0 89.69 M0 89.69 C-0.64 71.29, 2.15 58, 0 29.9 M0 89.69 C-0.37 72.06, -0.19 53.55, 0 29.9 M0 29.9 C1.81 8.4, 10.75 0.86, 29.9 0 M0 29.9 C0.14 8.49, 10.39 2.26, 29.9 0" stroke="#1971c2" stroke-width="2" fill="none"></path></g></a><g transform="translate(580.6888687890237 536.4117345241543) rotate(0 28.133333206176758 14.349730033731078)"><text x="28.133333206176758" y="0" font-family="Cascadia, Segoe UI Emoji" font-size="23.916216722885174px" fill="#1971c2" text-anchor="middle" style="white-space: pre;" direction="ltr" dominant-baseline="text-before-edge">wbdl</text></g><g transform="translate(313.78302302777774 10) rotate(0 26 10.662962904761912)"><text x="0" y="0" font-family="Cascadia, Segoe UI Emoji" font-size="17.771604841269845px" fill="#1971c2" text-anchor="start" style="white-space: pre;" direction="ltr" dominant-baseline="text-before-edge">wimcm</text></g><g stroke-linecap="round"><g transform="translate(292.4682085039683 196.18674010134833) rotate(0 67.66121925793664 -0.5907086280425062)"><path d="M0.06 0.29 C22.55 0, 112.52 -1.35, 134.97 -1.44 M-1.37 -0.6 C20.93 -0.74, 111.33 0.21, 133.83 -0.05" stroke="#1971c2" stroke-width="2" fill="none"></path></g><g transform="translate(292.4682085039683 196.18674010134833) rotate(0 67.66121925793664 -0.5907086280425062)"><path d="M110.33 8.48 C117.86 5.31, 124 2.33, 133.83 -0.05 M110.33 8.48 C119.38 5.7, 128.82 1.78, 133.83 -0.05" stroke="#1971c2" stroke-width="2" fill="none"></path></g><g transform="translate(292.4682085039683 196.18674010134833) rotate(0 67.66121925793664 -0.5907086280425062)"><path d="M110.35 -8.62 C117.91 -6.65, 124.05 -4.49, 133.83 -0.05 M110.35 -8.62 C119.43 -4.96, 128.86 -2.45, 133.83 -0.05" stroke="#1971c2" stroke-width="2" fill="none"></path></g></g><mask></mask><g transform="translate(105.75216009126984 71.63796251190479) rotate(0 78.17613341293094 10.662962904761912)"><text x="0" y="0" font-family="Cascadia, Segoe UI Emoji" font-size="17.771604841269845px" fill="#1971c2" text-anchor="start" style="white-space: pre;" direction="ltr" dominant-baseline="text-before-edge">doenern-backend</text></g><g transform="translate(721 99.34572261931476) rotate(0 210.89999389648438 192)"><text x="0" y="0" font-family="Cascadia, Segoe UI Emoji" font-size="20px" fill="#1971c2" text-anchor="start" style="white-space: pre;" direction="ltr" dominant-baseline="text-before-edge">wimcm (lib):</text><text x="0" y="24" font-family="Cascadia, Segoe UI Emoji" font-size="20px" fill="#1971c2" text-anchor="start" style="white-space: pre;" direction="ltr" dominant-baseline="text-before-edge">    Wizards in Memory Cache Models</text><text x="0" y="48" font-family="Cascadia, Segoe UI Emoji" font-size="20px" fill="#1971c2" text-anchor="start" style="white-space: pre;" direction="ltr" dominant-baseline="text-before-edge">wimcp (lib):</text><text x="0" y="72" font-family="Cascadia, Segoe UI Emoji" font-size="20px" fill="#1971c2" text-anchor="start" style="white-space: pre;" direction="ltr" dominant-baseline="text-before-edge">    Wizards in Memory Cache Provider</text><text x="0" y="96" font-family="Cascadia, Segoe UI Emoji" font-size="20px" fill="#1971c2" text-anchor="start" style="white-space: pre;" direction="ltr" dominant-baseline="text-before-edge">wimc (bin):</text><text x="0" y="120" font-family="Cascadia, Segoe UI Emoji" font-size="20px" fill="#1971c2" text-anchor="start" style="white-space: pre;" direction="ltr" dominant-baseline="text-before-edge">    Wizards in Memory Cache</text><text x="0" y="144" font-family="Cascadia, Segoe UI Emoji" font-size="20px" fill="#1971c2" text-anchor="start" style="white-space: pre;" direction="ltr" dominant-baseline="text-before-edge">wbsl (lib):</text><text x="0" y="168" font-family="Cascadia, Segoe UI Emoji" font-size="20px" fill="#1971c2" text-anchor="start" style="white-space: pre;" direction="ltr" dominant-baseline="text-before-edge">    Wizards basic Server library</text><text x="0" y="192" font-family="Cascadia, Segoe UI Emoji" font-size="20px" fill="#1971c2" text-anchor="start" style="white-space: pre;" direction="ltr" dominant-baseline="text-before-edge">wjp (lib):</text><text x="0" y="216" font-family="Cascadia, Segoe UI Emoji" font-size="20px" fill="#1971c2" text-anchor="start" style="white-space: pre;" direction="ltr" dominant-baseline="text-before-edge">    Wizards JSON Parser</text><text x="0" y="240" font-family="Cascadia, Segoe UI Emoji" font-size="20px" fill="#1971c2" text-anchor="start" style="white-space: pre;" direction="ltr" dominant-baseline="text-before-edge">whdp (lib):</text><text x="0" y="264" font-family="Cascadia, Segoe UI Emoji" font-size="20px" fill="#1971c2" text-anchor="start" style="white-space: pre;" direction="ltr" dominant-baseline="text-before-edge">    Wizards HTTP Library</text><text x="0" y="288" font-family="Cascadia, Segoe UI Emoji" font-size="20px" fill="#1971c2" text-anchor="start" style="white-space: pre;" direction="ltr" dominant-baseline="text-before-edge">aul (lib):</text><text x="0" y="312" font-family="Cascadia, Segoe UI Emoji" font-size="20px" fill="#1971c2" text-anchor="start" style="white-space: pre;" direction="ltr" dominant-baseline="text-before-edge">    Another useless Logger</text><text x="0" y="336" font-family="Cascadia, Segoe UI Emoji" font-size="20px" fill="#1971c2" text-anchor="start" style="white-space: pre;" direction="ltr" dominant-baseline="text-before-edge">wbdl (lib):</text><text x="0" y="360" font-family="Cascadia, Segoe UI Emoji" font-size="20px" fill="#1971c2" text-anchor="start" style="white-space: pre;" direction="ltr" dominant-baseline="text-before-edge">    Wizards basic Date library</text></g><g transform="translate(715 54.545722619314745) rotate(0 57.400001525878906 16.799999999999997)"><text x="0" y="0" font-family="Cascadia, Segoe UI Emoji" font-size="28px" fill="#1971c2" text-anchor="start" style="white-space: pre;" direction="ltr" dominant-baseline="text-before-edge">LEGEND:</text></g></svg>